<svg xmlns="http://www.w3.org/2000/svg" xmlns:xlink="http://www.w3.org/1999/xlink" id="Capa_2" data-name="Capa 2" viewBox="0 0 1043.19 215.15"><defs><style>.cls-1{fill:#1f9ce2}.cls-2{fill:#f7f8f9}</style></defs><g id="Capa_1-2" data-name="Capa 1"><path d="m118.38 86.34 10.08 8 11.29-4.25-20.49-16.27z" class="cls-1"/><path d="M183.64 31.51C163.32 11.19 136.31 0 107.57 0S51.83 11.19 31.51 31.51 0 78.84 0 107.57s11.19 55.75 31.51 76.07 47.33 31.51 76.07 31.51 55.75-11.19 76.07-31.51 31.51-47.33 31.51-76.07-11.19-55.75-31.51-76.07Zm-30.36-8.68.42.23a96 96 0 0 1 39.65 40.77l-30.11 41.79a141 141 0 0 0-1.38-11.77L151.31 21.8q1 .51 1.98 1.04Zm-50.73-11.4.72-.03 1.71-.06.84-.01h.72q.46-.03.92-.02h1.6l.93.02.68.02c9.59.3 19.01 2.01 28.02 5.09l7.57 52c-5.55-5.14-10.65-8.66-16.38-11.37L64.72 21.35a95 95 0 0 1 37.84-9.91Zm48.46 96.5c0 23.94-19.48 43.42-43.42 43.42s-43.42-19.48-43.42-43.42 19.48-43.42 43.42-43.42 43.42 19.48 43.42 43.42M53.16 28.15l45.96 25.22c-7.16.97-12.8 2.84-18.47 6.03L12.4 93.07a96 96 0 0 1 40.76-64.91Zm-7.44 153.19a95.6 95.6 0 0 1-34.41-73.76v-.99l3.89-1.86 42.36-21.08a60 60 0 0 0-5.83 21.88zm71.06 22.06-.34.03-1.96.16-.88.06-1.46.08-.98.04h-.43q-.5.04-1 .04l-1.17.01h-1.17l-.97-.01h-.37l-1.37-.03-.62-.02a97.5 97.5 0 0 1-41.39-11.04l-.49-.26-.68-.37-.3-.16q-2.15-1.19-4.22-2.47l3.83-51.64a80 80 0 0 0 7.24 9.23l.06.07 59.64 54.56a95 95 0 0 1-10.96 1.7Zm24.19-5.52-38.94-35.47c5.54.54 10.71.67 16.42-.27l73.94-9.01a97.3 97.3 0 0 1-51.42 44.75m6.01-50.97c2.87-3.08 5.39-5.98 8-9.45l43.66-61.17a96 96 0 0 1 5.2 31.29 96 96 0 0 1-5.85 33.11z" class="cls-1"/><path d="M347.08 108.37a43 43 0 0 0-10.1-5.33q-5.25-1.9-9.46-3.02L307 94.3a62 62 0 0 1-7.67-2.58 18 18 0 0 1-6.32-4.21q-2.55-2.67-2.54-6.88 0-4.46 2.98-7.79c2.98-3.33 4.61-3.94 7.87-5.13s6.8-1.76 10.62-1.71q5.88.16 11.09 2.38c5.21 2.22 6.41 3.65 8.83 6.48a23 23 0 0 1 4.89 10.3l20.6-3.58Q354.8 71 348.6 63.53t-15.43-11.41c-9.23-3.93-13.15-3.96-20.99-4.02q-11.61-.07-21.11 3.66-9.5 3.74-15.11 11.25t-5.61 18.57q0 7.56 2.5 12.68a25 25 0 0 0 6.44 8.43 33 33 0 0 0 8.35 5.17 74 74 0 0 0 8.23 2.98l29.58 8.75q3.18.95 5.61 2.27 2.42 1.3 3.98 2.9c1.56 1.6 1.81 2.27 2.35 3.62q.8 2.02.79 4.41 0 5.33-3.38 8.99a21.4 21.4 0 0 1-8.79 5.57 35 35 0 0 1-11.53 1.91q-10.33 0-18.25-5.57c-7.92-5.57-8.76-8.96-10.46-15.75l-19.88 3.02q1.75 11.22 8.23 19.36a42 42 0 0 0 16.54 12.53q10.06 4.37 22.62 4.37 8.82 0 16.9-2.23a45 45 0 0 0 14.35-6.68q6.29-4.45 9.98-11.17c3.69-6.72 3.7-9.69 3.7-15.63s-1.05-10.44-3.14-14.15a27 27 0 0 0-7.99-8.99M443.14 92.54a25 25 0 0 0-12.92-12.25q-8.7-3.74-20.16-3.74-15.2 0-24.13 6.6c-8.93 6.6-10.01 10.23-12.13 17.49l17.49 5.49q2.15-6.6 7.55-9.3t11.21-2.7q9.62 0 13.68 4.21 3.37 3.52 3.87 10.27l-10.11 1.47q-8.15 1.15-15.11 2.5t-12.13 3.02q-6.84 2.3-11.13 5.93a22.4 22.4 0 0 0-6.36 8.59 29 29 0 0 0-2.07 11.17q0 7.08 3.3 12.96a24.2 24.2 0 0 0 9.74 9.42q6.44 3.54 15.75 3.54 11.6 0 19.36-4.33a35 35 0 0 0 10.77-9.62v11.57h16.78v-52.72q0-5.56-.48-10.3c-.48-4.74-1.25-6.24-2.78-9.27Zm-17.66 45.17a20 20 0 0 1-3.7 6.28 22 22 0 0 1-7.36 5.64q-4.62 2.31-11.13 2.31-4.53 0-7.59-1.43a11 11 0 0 1-4.65-3.86 10 10 0 0 1-1.59-5.61 9.3 9.3 0 0 1 1.23-4.85q1.23-2.07 3.54-3.66a24 24 0 0 1 5.65-2.78q3.42-1.11 7.87-2.03t10.66-1.95q3.97-.67 8.95-1.45-.04 2.18-.16 4.99-.2 4.73-1.71 8.39ZM543.09 98.27a35 35 0 0 0-5.41-10.5 28 28 0 0 0-9.86-8.11q-6.2-3.18-15.75-3.18-12.08 0-20.36 5.29a34 34 0 0 0-7.71 6.74v-9.56h-17.1v85.88h19.4V120.7q0-7.87 1.75-12.92 1.76-5.05 4.65-7.95a16.5 16.5 0 0 1 6.48-4.1q3.58-1.19 7.24-1.19 6.84 0 10.85 2.94c4.01 2.94 4.69 4.47 6.04 7.51a32 32 0 0 1 2.58 9.5q.56 4.93.56 8.99v41.35h19.4v-47.95q0-3.1-.52-8.07a54 54 0 0 0-2.27-10.54ZM563.21 95.73h40.87L558.6 162.2v2.63h73.39v-16.78h-43.41l45.32-66.4v-2.7h-70.69zM751.59 104.79h-40.56v15.03h20.2q-1.43 9.86-5.57 16.42a26 26 0 0 1-10.66 9.78q-6.52 3.22-15.19 3.14-11.54-.16-19.2-5.33-7.68-5.17-11.49-14.43t-3.82-21.83c-.01-12.57 1.29-15.69 3.86-21.95q3.86-9.38 11.49-14.55t19.16-5.01q11.45 0 18.85 6.08c7.4 6.08 8.48 9.48 10.66 16.26l19.56-3.1q-4.38-17.73-16.74-27.55t-33.52-9.82q-15.27 0-27.43 7.12t-19.17 20.44-7 32.09q0 14.31 4.13 25.41t11.49 18.73a49 49 0 0 0 17.1 11.57 55 55 0 0 0 20.87 3.94q16.62 0 28.55-7.16c11.93-7.16 14.06-11.36 18.33-19.76q6.4-12.6 6.4-28.83l-.08-2.94a41 41 0 0 0-.24-3.74ZM808.29 78.59q-4.05.28-7.91 1.51a27 27 0 0 0-7.04 3.38 23 23 0 0 0-6.4 5.84 29 29 0 0 0-2.19 3.38V78.95h-16.94v85.88h19.24v-43.66q0-4.94 1.19-9.18 1.2-4.26 3.7-7.59c2.5-3.33 3.83-4.06 6.48-5.49a20 20 0 0 1 8.95-2.78q4.96-.4 8.79.72V78.96a34 34 0 0 0-7.87-.36ZM896.95 92.54a25 25 0 0 0-12.92-12.25q-8.7-3.74-20.16-3.74-15.2 0-24.13 6.6c-8.93 6.6-10.01 10.23-12.13 17.49l17.49 5.49q2.15-6.6 7.55-9.3t11.21-2.7q9.62 0 13.68 4.21 3.37 3.52 3.87 10.27l-10.11 1.47q-8.15 1.15-15.11 2.5t-12.13 3.02q-6.84 2.3-11.13 5.93a22.4 22.4 0 0 0-6.36 8.59 29 29 0 0 0-2.07 11.17q0 7.08 3.3 12.96a24.2 24.2 0 0 0 9.74 9.42q6.43 3.54 15.75 3.54 11.6 0 19.36-4.33a35 35 0 0 0 10.77-9.62v11.57h16.78v-52.72q0-5.56-.48-10.3c-.48-4.74-1.25-6.24-2.78-9.27Zm-17.65 45.17a20 20 0 0 1-3.7 6.28 22 22 0 0 1-7.36 5.64q-4.62 2.31-11.13 2.31-4.53 0-7.59-1.43a11 11 0 0 1-4.65-3.86 10 10 0 0 1-1.59-5.61 9.3 9.3 0 0 1 1.23-4.85q1.23-2.07 3.54-3.66a24 24 0 0 1 5.65-2.78q3.42-1.11 7.87-2.03t10.66-1.95q3.97-.67 8.95-1.45-.04 2.18-.16 4.99-.2 4.73-1.71 8.39ZM1035.6 85.35q-7.6-8.55-21.83-8.55a32 32 0 0 0-15.59 3.82 29 29 0 0 0-10.6 9.85 25 25 0 0 0-8.92-9.57q-6.48-4.1-16.1-4.1a32.4 32.4 0 0 0-15.79 3.86 30 30 0 0 0-9.1 7.61v-9.32h-16.94v85.88h19.32v-52.88q0-8.03 4.41-13.04c4.41-5.01 6.85-5.01 11.73-5.01s9.01 1.67 11.93 5.01q4.37 5.01 4.37 14v51.93h19.08v-52.88q0-5.64 2.15-9.74c2.15-4.1 3.37-4.8 5.8-6.2q3.66-2.1 8.27-2.11 7.47 0 11.85 4.97t4.37 13.8v52.17h19.17v-57.02q0-13.91-7.59-22.46Z" class="cls-2"/></g></svg>