<?xml version="1.0" encoding="UTF-8"?>
<svg id="a" xmlns="http://www.w3.org/2000/svg" version="1.1" xmlns:xlink="http://www.w3.org/1999/xlink" viewBox="0 0 128.5 36.1">
  <defs>
    <style>
      .cls-1 {
        font-family: Lobster-Regular, Lobster;
        font-size: 12px;
      }

      .cls-1, .cls-2 {
        fill: #000;
      }

      .cls-3 {
        opacity: 1;
      }

      .cls-2 {
        font-family: Raleway-Bold, Raleway;
        font-size: 17px;
        font-weight: 700;
      }

      .cls-4 {
        fill: url(#linear-gradient);
        fill-rule: evenodd;
      }

      .cls-4, .cls-5, .cls-6 {
        stroke-width: 0px;
      }

      .cls-7 {
        fill: none;
        stroke: #209ce2;
        stroke-miterlimit: 10;
        stroke-width: 3px;
      }

      .cls-5 {
        fill: #209ce2;
      }

      .cls-6 {
        fill: #fff;
      }
    </style>
    <linearGradient id="linear-gradient" x1="59.8" y1="80.3" x2="59.8" y2="50.3" gradientTransform="translate(0 41.2) scale(1 -1)" gradientUnits="userSpaceOnUse">
      <stop offset="0" stop-color="#877eff"/>
      <stop offset=".5" stop-color="#685dff"/>
      <stop offset="1" stop-color="#3121ff"/>
    </linearGradient>
  </defs>
  <path class="cls-5" d="M-7.7-15.7c0,2.8,1.2,5,3,5.9.9.4,1.9-.2,1.9-1.2h0c0-.5-.3-1-.7-1.2-1.1-.5-1.9-1.7-1.9-3.5s1-3.2,2.3-3.2c3.5,0,1.5,9.3,7.3,9.3s4.4-2.3,4.4-5.8-1.1-4.7-3.1-5.6c-.9-.4-1.8.3-1.8,1.2h0c0,.5.3,1,.8,1.2,1.1.4,1.9,1.5,1.9,3.2s-.9,3.1-2.2,3.1c-3.7,0-1.7-9.1-7.3-9.2-2.6,0-4.5,2.3-4.5,5.7h0Z"/>
  <path class="cls-4" d="M72.6-24.2c0,7.1-5.7,12.8-12.8,12.8s-12.8-5.7-12.8-12.8,5.7-12.8,12.8-12.8,12.8,5.7,12.8,12.8ZM74.8-24.2c0,8.3-6.7,15-15,15s-15-6.7-15-15,6.7-15,15-15,15,6.7,15,15ZM68.1-30.9c0,.9-.7,1.6-1.6,1.6s-1.6-.7-1.6-1.6.7-1.6,1.6-1.6,1.6.7,1.6,1.6ZM55.3-22.9c.7,2.5,3.2,4,5.7,3.3,2.5-.7,4-3.2,3.3-5.7-.7-2.5-3.2-4-5.7-3.3s-4,3.2-3.3,5.7ZM53.2-22.4c1,3.6,4.7,5.8,8.4,4.8,3.6-1,5.8-4.7,4.8-8.4-1-3.6-4.7-5.8-8.4-4.8-3.6,1-5.8,4.7-4.8,8.4Z"/>
  <g>
    <path class="cls-6" d="M44.4,29.1c-.5,0-1,0-1.5-.3-.5-.2-.9-.4-1.2-.7-.3-.3-.6-.7-.8-1.1-.2-.4-.3-.9-.3-1.4s.1-1,.3-1.4c.2-.4.5-.8,1-1.1.4-.3.9-.5,1.5-.7.6-.2,1.2-.3,1.9-.3s1,0,1.4.1c.5,0,.9.2,1.2.4v-.6c0-.7-.2-1.3-.6-1.7-.4-.4-1-.6-1.8-.6s-1.2.1-1.7.3-1.1.5-1.7.9l-.9-1.8c1.4-.9,2.9-1.4,4.5-1.4s2.8.4,3.7,1.2c.9.8,1.3,1.9,1.3,3.3v3.4c0,.3,0,.5.2.6.1.1.3.2.5.2v2.4c-.5,0-.9.1-1.2.1-.5,0-.9-.1-1.2-.4-.3-.2-.5-.5-.5-.9v-.6c-.5.6-1.1,1.1-1.8,1.5s-1.4.5-2.2.5ZM45.2,27.1c.5,0,.9,0,1.3-.3.4-.2.8-.4,1-.7.3-.2.5-.5.5-.8v-1.3c-.3-.1-.7-.2-1.1-.3-.4,0-.8-.1-1.1-.1-.7,0-1.3.2-1.8.5-.5.3-.7.7-.7,1.2s.2.9.5,1.2c.4.3.8.5,1.3.5Z"/>
    <path class="cls-6" d="M63.4,28.9h-2.8v-6.1c0-.9-.2-1.5-.5-1.9-.3-.4-.7-.6-1.3-.6s-.6,0-.9.2-.6.3-.8.5c-.3.2-.5.4-.7.7-.2.3-.4.6-.5.9v6.4h-2.8v-10.9h2.5v2c.4-.7,1-1.2,1.8-1.6s1.6-.6,2.6-.6,1.2.1,1.7.4c.4.2.8.6,1,1,.2.4.4.9.5,1.4,0,.5.1,1,.1,1.6v6.8Z"/>
    <path class="cls-6" d="M65.1,27.2l6.1-7.3h-5.8v-2h8.8v1.7l-6,7.3h6.1v2h-9.1v-1.7Z"/>
    <path class="cls-6" d="M86.5,27.3c-1.2,1.2-2.6,1.8-4.1,1.8s-1.9-.2-2.7-.6c-.9-.4-1.6-.9-2.2-1.6-.6-.7-1.1-1.5-1.5-2.4-.4-.9-.6-1.9-.6-3s.2-2,.6-2.9.9-1.7,1.5-2.4c.6-.7,1.4-1.2,2.3-1.6.9-.4,1.8-.6,2.9-.6s2.6.3,3.6.9c1,.6,1.7,1.4,2.2,2.4l-2.1,1.6c-.4-.7-.9-1.3-1.6-1.7-.7-.4-1.4-.6-2.2-.6s-1.2.1-1.7.4c-.5.3-1,.6-1.3,1.1-.4.5-.7,1-.9,1.6-.2.6-.3,1.2-.3,1.9s.1,1.3.3,1.9c.2.6.5,1.1.9,1.6.4.4.9.8,1.4,1.1.5.3,1.1.4,1.7.4,1.4,0,2.7-.7,3.9-2v-1h-3v-2.1h5.4v7.6h-2.4v-1.7Z"/>
    <path class="cls-6" d="M97.5,20.4c-.8,0-1.6.2-2.3.5-.7.3-1.1.8-1.4,1.4v6.6h-2.8v-10.9h2.6v2.3c.2-.4.4-.7.7-1,.3-.3.5-.6.9-.8.3-.2.6-.4.9-.5s.6-.2.9-.2h.3c0,0,.1,0,.2,0v2.5Z"/>
    <path class="cls-6" d="M101.8,29.1c-.5,0-1,0-1.5-.3-.5-.2-.9-.4-1.2-.7-.3-.3-.6-.7-.8-1.1-.2-.4-.3-.9-.3-1.4s.1-1,.3-1.4c.2-.4.5-.8,1-1.1.4-.3.9-.5,1.5-.7.6-.2,1.2-.3,1.9-.3s1,0,1.4.1c.5,0,.9.2,1.2.4v-.6c0-.7-.2-1.3-.6-1.7-.4-.4-1-.6-1.8-.6s-1.2.1-1.7.3-1.1.5-1.7.9l-.9-1.8c1.4-.9,2.9-1.4,4.5-1.4s2.8.4,3.7,1.2c.9.8,1.3,1.9,1.3,3.3v3.4c0,.3,0,.5.2.6.1.1.3.2.5.2v2.4c-.5,0-.9.1-1.2.1-.5,0-.9-.1-1.2-.4-.3-.2-.5-.5-.5-.9v-.6c-.5.6-1.1,1.1-1.8,1.5s-1.4.5-2.2.5ZM102.6,27.1c.5,0,.9,0,1.3-.3.4-.2.8-.4,1-.7.3-.2.5-.5.5-.8v-1.3c-.3-.1-.7-.2-1.1-.3-.4,0-.8-.1-1.1-.1-.7,0-1.3.2-1.8.5-.5.3-.7.7-.7,1.2s.2.9.5,1.2c.4.3.8.5,1.3.5Z"/>
    <path class="cls-6" d="M127.7,28.9h-2.8v-6.1c0-.9-.1-1.5-.4-1.9-.3-.4-.7-.6-1.2-.6s-1.1.2-1.6.6-.8,1-1,1.7v6.4h-2.8v-6.1c0-.9-.1-1.5-.4-1.9-.3-.4-.7-.6-1.2-.6s-1.1.2-1.6.6-.8,1-1.1,1.6v6.4h-2.8v-10.9h2.5v2c.4-.7,1-1.3,1.7-1.6.7-.4,1.5-.6,2.4-.6s1.6.2,2.1.7c.5.4.8,1,1,1.6.4-.8,1-1.3,1.7-1.7.7-.4,1.5-.6,2.3-.6s1.2.1,1.6.4c.4.2.8.6,1,1,.2.4.4.9.5,1.4,0,.5.1,1,.1,1.6v6.8Z"/>
  </g>
  <g>
    <path class="cls-6" d="M131.2,54.4c0-1.2.4-2.3,1.3-3.2s1.8-1.4,2.8-1.4.8.1.8.4h0c0,.1.5.1.5.1.4,0,.6.2.6.5h0c0,.1-.6,3.6-.6,3.6,0,0,0,.1,0,.2,0,.3.1.5.3.5.5,0,1.1-.4,1.8-1.3,0-.1.2-.2.3-.2.1,0,.2.1.3.3,0,.2.1.4.1.5s0,.3,0,.3c-.3.4-.7.8-1.2,1.2-.5.4-1,.5-1.4.5s-.8-.1-1-.3c-.2-.2-.4-.6-.4-1h0c-.2.5-.5.8-.9,1-.4.2-.8.4-1.4.4s-1-.2-1.3-.6c-.3-.4-.5-.9-.5-1.6ZM133.4,55.1c.4,0,.7-.2,1-.6.3-.4.5-.8.7-1.3l.5-2.2c-.8,0-1.5.4-2.1,1.1-.6.7-.9,1.4-.9,2.1s.3,1,.8,1Z"/>
    <path class="cls-6" d="M143.9,55.1c.5-.1,1.1-.5,1.8-1.2,0,0,.1,0,.2,0s.2,0,.3.3.2.3.2.4,0,.2,0,.2c-.4.5-1,1-1.6,1.3-.6.3-1.2.4-1.6.4-.8,0-1.2-.4-1.2-1.3s.1-1.1.4-1.9c.3-.8.4-1.3.4-1.3s0,0,0,0h0c-.2,0-.7.6-1.4,1.6-.7,1-1.2,1.6-1.3,2s-.3.7-.4.8c-.1.1-.3.2-.5.2-.5,0-.7-.5-.7-1.5,0-1.4.3-2.9.9-4.4.2-.5.5-.7.9-.7s.3,0,.4.2c.1.1.2.2.2.3s0,.2,0,.2c-.3.9-.6,1.9-.7,3,.7-1.2,1.4-2.1,2-2.8.7-.6,1.3-1,1.8-1s.5,0,.7.2c.2.2.3.3.3.5,0,.3-.2,1-.5,2s-.5,1.6-.5,1.8c0,.2,0,.3,0,.5s0,.2.1.2c0,0,.1,0,.1,0Z"/>
    <path class="cls-6" d="M149.5,50.1c.2,0,.4,0,.5.2.1.1.2.2.2.4,0,.5,0,.8-.3,1s-1.3,1.2-3.4,3.1c0,.2,0,.3.2.4.2.1.4.2.7.2.9,0,2-.4,3.4-1.2,0,0,0,0,.1,0s.1,0,.2.2c0,.1,0,.3,0,.5s0,.3-.2.4c-1.3.9-2.5,1.4-3.8,1.4s-1.2-.1-1.5-.4-.6-.6-.6-1.1.3-.9.8-1.4l3-2.5c-1.3.1-2.3.2-2.9.2s-.2,0-.2-.2-.1-.3-.1-.5c0-.3.2-.5.5-.5h3.4Z"/>
    <path class="cls-6" d="M150.9,52.4c0-1.2.2-2.3.6-3.3.7-1.9,1.9-3.4,3.6-4.6,1.5-1.1,3.1-1.6,4.8-1.6s2,.3,2.7.8c.7.6,1,1.4,1,2.4s-.3,1-1,1-.5,0-.7-.2c-.2-.1-.2-.5-.2-.9s-.2-.8-.6-1.1c-.4-.3-.8-.4-1.4-.4-1.2,0-2.4.4-3.5,1.3-.6.4-1.1,1-1.6,1.5-.5.6-.9,1.3-1.2,2.2s-.5,1.8-.5,2.8.3,2.2,1,2.8c.7.6,1.6.9,2.8.9s3.2-.5,5.1-1.4v-.6c.1,0,.1-.1.1-.2s0-.2-.2-.2c-.1,0-.4,0-.8,0s-.7,0-.9-.2c-.2,0-.3-.3-.3-.6,0-.5.4-.8,1.2-.8s1.7,0,2.1.2.6.5.6,1,0,.4-.1.8c-.6,3.1-1.3,5.3-2.3,6.8-.9,1.5-2.1,2.2-3.6,2.2s-1.4-.1-2.1-.4c-.5-.2-.7-.5-.7-.9s0-.5.3-.7c.2-.2.4-.3.6-.3s.1,0,.2,0c.7.3,1.3.4,1.8.4.8,0,1.5-.4,2.1-1.2.6-.8,1.2-2.2,1.7-4.1-.3.4-1,.8-2,1.1-1.1.4-2.1.5-3.3.5s-2.7-.4-3.7-1.1c-1.1-.8-1.7-2.1-1.7-4Z"/>
    <path class="cls-6" d="M166.1,53.9c.2-.8.7-1.6,1.4-2.6.7-1,1.2-1.5,1.6-1.5.6,0,.9.2.9.7s0,.6-.2,1c-.1.4-.2.6-.2.7,0,.2.1.3.4.3s.8-.2,1.4-.6c0,0,0,0,.2,0s.2,0,.3.2c.1.1.2.3.2.4s0,.2,0,.2c-.8.7-1.6,1.1-2.3,1.1s-1.4-.4-1.4-1.2.1-.5.3-1.3c0,0-.1.2-.3.5-.6,1-1.2,2.4-1.8,4-.2.3-.5.5-.9.5s-.8-.4-.8-1.3v-.2c0-1.4.2-2.8.6-4.2.2-.6.5-.9,1-.9s.3,0,.4.2c.1.1.2.2.2.4l-.8,3.5Z"/>
    <path class="cls-6" d="M170.8,54.4c0-1.2.4-2.3,1.3-3.2s1.8-1.4,2.8-1.4.8.1.8.4h0c0,.1.5.1.5.1.4,0,.6.2.6.5h0c0,.1-.6,3.6-.6,3.6,0,0,0,.1,0,.2,0,.3.1.5.3.5.5,0,1.1-.4,1.8-1.3,0-.1.2-.2.3-.2.1,0,.2.1.3.3,0,.2.1.4.1.5s0,.3,0,.3c-.3.4-.7.8-1.2,1.2-.5.4-1,.5-1.4.5s-.8-.1-1-.3c-.2-.2-.4-.6-.4-1h0c-.2.5-.5.8-.9,1-.4.2-.8.4-1.4.4s-1-.2-1.3-.6c-.3-.4-.5-.9-.5-1.6ZM173,55.1c.4,0,.7-.2,1-.6.3-.4.5-.8.7-1.3l.5-2.2c-.8,0-1.5.4-2.1,1.1-.6.7-.9,1.4-.9,2.1s.3,1,.8,1Z"/>
    <path class="cls-6" d="M181.5,55.4c0-.7.2-1.9.7-3.8-.8,1.1-1.5,2.4-2.2,3.7-.2.4-.3.6-.5.8-.2.2-.3.3-.3.3,0,0-.2,0-.3,0-.5,0-.8-.4-.8-1.3,0-1.5.3-3.1.8-4.7.1-.5.4-.7.8-.7s.3,0,.4.1c.1,0,.2.2.2.3s0,.2,0,.2c-.3,1.1-.6,2.3-.7,3.7.6-1.5,1.2-2.5,1.8-3.2s1.1-1,1.5-1,.4,0,.5.2c.1.1.2.3.2.4,0,.6-.2,1.8-.6,3.4,1-2.7,2.1-4.1,3.2-4.1s.9.3.9.9-.2,1-.5,2c-.3.9-.5,1.6-.5,2.1s.2.5.5.5.2,0,.2,0c.3,0,1-.5,1.8-1.4,0,0,.1,0,.2,0s.2,0,.4.2c.1.1.2.2.2.3s0,.1,0,.2c-.4.6-1,1.1-1.6,1.4-.6.4-1.2.5-1.6.5h0c-.4,0-.8-.1-1-.4-.2-.3-.4-.6-.4-1v-.2c0-.6.4-1.8.9-3.5-.6.5-1.4,1.9-2.5,4.3-.2.4-.5.7-.7.7-.5,0-.8-.3-.8-1Z"/>
  </g>
  <g class="cls-3">
    <path class="cls-5" d="M-4.2-22.9c4.6,0,6.9-1.4,6.9-4.3s-.6-2.3-1.7-3.1c-.6-.5-1.2-.8-1.6-1.1-.5-.3-1.2-.7-2.3-1.2-1-.5-1.7-.9-2.1-1.1-.3-.2-.8-.4-1.3-.7-.5-.3-.9-.5-1.1-.6-.2-.1-.5-.3-.9-.5-.4-.3-.7-.5-.9-.6-.2-.1-.4-.3-.8-.6-.4-.3-.6-.5-.7-.7-.1-.2-.3-.5-.5-.8-.5-.7-.8-1.8-.8-3.1s.6-2.9,1.7-4c2.2-2.2,5.4-3.3,9.6-3.3s4.9.5,6.6,1.6c1.7,1.1,2.6,2.6,2.7,4.6,0,1.7-.6,3.2-1.8,4.4-.7.7-1.4,1.1-2.1,1.1s-1.2-.2-1.5-.5c-.4-.3-.5-.7-.5-1.2s.2-.8.5-1.2c.8-.8,1.2-1.7,1.2-2.7,0-2-1.8-3-5.5-3s-3.3.4-4.3,1.1-1.6,1.6-1.6,2.7.1,1,.4,1.5c0,.2.2.4.5.6s.5.4.7.6c.2.2.5.4,1,.6.5.2.8.5,1.2.6.3.2.8.4,1.5.8.7.4,1.5.8,2.4,1.2.9.5,1.8.9,2.7,1.5,1.6.9,2.7,1.8,3.3,2.7.8,1.1,1.2,2.4,1.2,4.1,0,2.5-1.1,4.5-3.4,5.9s-5.1,2.1-8.7,2.1-7.4-1.1-9.4-3.3c-1.1-1.1-1.7-2.6-1.8-4.3v-.3c0-1.2.4-2.2,1.2-3.1.8-.9,1.8-1.4,3.1-1.4s1.3.4,1.3,1.2-.2.8-.5,1.4c-.4.6-.5,1.2-.5,1.8,0,1.6.6,2.8,1.8,3.5s2.9,1.1,5.3,1.1Z"/>
  </g>
  <text class="cls-1" transform="translate(99.7 -22.2)"><tspan x="0" y="0">SanzGram</tspan></text>
  <text class="cls-2" transform="translate(23.1 -10.3)"><tspan x="0" y="0">S</tspan></text>
  <circle class="cls-7" cx="18.4" cy="18" r="16.3"/>
  <circle class="cls-7" cx="18.4" cy="18" r="6.5"/>
  <path class="cls-5" d="M16.1,18.7"/>
  <g>
    <path class="cls-5" d="M15.7,12.8c-.3-.2-.5-.4-.7-.6-.7-.6-1-1.6-1-2.8s.8-2.3,2.3-3.2c1.6-.9,3.2-1.3,4.9-1.3s3.2.3,4.4,1c1.2.7,1.8,1.6,1.8,2.7s-.5,2.2-1.4,3.2c-.3.3-.4.7-.4,1.1s.2.8.5,1c.3.3.8.4,1.4.4s1.2-.4,1.9-1.1c1.2-1.3,1.8-3,1.8-4.9,0-2-.9-3.5-2.7-4.7-1.8-1.2-4.1-1.8-6.9-1.8s-6,.7-8.3,2.1c-2.4,1.4-3.6,3.3-3.6,5.7s.1,2,.4,2.5c.3.5.5.9.6,1.2.1.3.4.6.8,1,.4.4.7.7.9.8.1.1.3.3.6.5.6-1.3,1.6-2.3,2.9-2.9Z"/>
    <path class="cls-5" d="M28.6,20.9c-.1-.2-.4-.5-.9-.9-.4-.3-.7-.6-.9-.8-.2-.2-.6-.4-1.1-.8-.6-.4-1-.6-1.2-.7,0,0-.2-.1-.4-.2,0,.2,0,.3,0,.5,0,1.3-.4,2.5-1.1,3.5.3.2.6.4.9.6,1.3,1,1.9,2.2,1.9,3.8s-.7,2.8-2,3.7c-1.3,1-3.3,1.4-5.8,1.4s-4.5-.5-5.9-1.4c-1.4-.9-2.1-2.3-2.1-4s.1-.9.3-1.5c.2-.6.3-1.1.3-1.4,0-.8-.5-1.2-1.4-1.2s-1.7.4-2.4,1.2c-.7.8-1,1.8-1,2.9,0,2.7,1.2,4.9,3.4,6.3s5.2,2.2,8.7,2.2,6.4-.8,8.7-2.3c2.3-1.6,3.5-3.7,3.5-6.4s-.3-2.8-.9-3.7c-.3-.4-.5-.7-.6-.9Z"/>
  </g>
</svg>