<svg xmlns="http://www.w3.org/2000/svg" id="Capa_2" data-name="Capa 2" viewBox="0 0 215.15 215.15" width="215.15" height="215.15"><metadata><rdf:RDF xmlns:rdf="http://www.w3.org/1999/02/22-rdf-syntax-ns#" xmlns:dc="http://purl.org/dc/elements/1.1/"><rdf:Description><dc:creator>RealFaviconGenerator</dc:creator><dc:source>https://realfavicongenerator.net</dc:source></rdf:Description></rdf:RDF></metadata><defs>
    <style>
      .cls-1 {
        fill: #1f9ce2;
      }
    </style>
  </defs><g id="Capa_1-2" data-name="Capa 1">
    <g>
      <polygon class="cls-1" points="118.38 86.34 128.46 94.34 139.75 90.09 119.26 73.82 118.38 86.34"></polygon>
      <path class="cls-1" d="M183.64,31.51C163.32,11.19,136.31,0,107.57,0S51.83,11.19,31.51,31.51C11.19,51.83,0,78.84,0,107.57s11.19,55.75,31.51,76.07c20.32,20.32,47.33,31.51,76.07,31.51s55.75-11.19,76.07-31.51c20.32-20.32,31.51-47.33,31.51-76.07s-11.19-55.75-31.51-76.07ZM153.28,22.83l.42.23c17.11,9.36,30.79,23.44,39.65,40.77l-30.11,41.79c-.28-3.58-.69-7.54-1.38-11.77l-10.55-72.04c.67.34,1.33.69,1.98,1.04ZM102.55,11.43l.72-.03c.57-.02,1.14-.05,1.71-.06.28,0,.56-.01.84-.01h.72c.31-.02.61-.02.92-.02.27,0,.53,0,.8,0h.8c.31.01.62.01.93.02l.68.02c9.59.3,19.01,2.01,28.02,5.09l7.57,52c-5.55-5.14-10.65-8.66-16.38-11.37L64.72,21.35c11.82-5.9,24.53-9.23,37.84-9.91ZM151.01,107.93c0,23.94-19.48,43.42-43.42,43.42s-43.42-19.48-43.42-43.42,19.48-43.42,43.42-43.42,43.42,19.48,43.42,43.42ZM53.16,28.15l45.96,25.22c-7.16.97-12.8,2.84-18.47,6.03L12.4,93.07c3.98-26.3,18.67-49.75,40.76-64.91ZM45.72,181.34c-21.92-18.36-34.41-45.05-34.41-73.76,0-.33,0-.66,0-.99l3.89-1.86,42.36-21.08c-3.37,7.01-5.24,14.09-5.83,21.88l-6.02,75.82ZM116.78,203.4l-.34.03c-.65.06-1.31.11-1.96.16l-.88.06c-.49.03-.98.06-1.46.08-.33.02-.66.03-.98.04h-.43c-.33.03-.67.04-1,.04-.39,0-.78.01-1.17.01h-.24c-.31,0-.62,0-.93,0-.32,0-.65,0-.97-.01h-.37c-.46-.01-.91-.02-1.37-.03l-.62-.02c-14.31-.53-28.63-4.35-41.39-11.04l-.49-.26c-.23-.12-.45-.24-.68-.37l-.3-.16c-1.43-.79-2.84-1.62-4.22-2.47l3.83-51.64c2.36,3.48,4.62,6.35,7.24,9.23l.06.07,59.64,54.56c-3.62.78-7.29,1.35-10.96,1.7ZM140.97,197.88l-38.94-35.47c5.54.54,10.71.67,16.42-.27l73.94-9.01c-11.06,20.51-29.59,36.67-51.42,44.75ZM146.98,146.91c2.87-3.08,5.39-5.98,8-9.45l43.66-61.17c3.45,10.05,5.2,20.55,5.2,31.29,0,11.38-1.97,22.51-5.85,33.11l-51.01,6.22Z"></path>
    </g>
  </g></svg>