<svg xmlns="http://www.w3.org/2000/svg" version="1.1" xmlns:xlink="http://www.w3.org/1999/xlink" xmlns:svgjs="http://svgjs.dev/svgjs" width="35.52" height="35.52"><svg xmlns="http://www.w3.org/2000/svg" viewBox="0 0 35.52 35.52"><circle cx="17.76" cy="17.76" r="16.26" fill="none" stroke="#209ce2" stroke-miterlimit="10" stroke-width="3"></circle><circle cx="17.76" cy="17.76" r="6.5" fill="none" stroke="#209ce2" stroke-miterlimit="10" stroke-width="3"></circle><path fill="#209ce2" d="M15.04 12.5c-.28-.21-.54-.41-.74-.59-.69-.64-1.04-1.58-1.04-2.82s.78-2.3 2.34-3.19c1.56-.88 3.21-1.32 4.94-1.32s3.19.33 4.36 1 1.76 1.57 1.76 2.71-.46 2.2-1.39 3.19c-.29.32-.43.68-.43 1.08s.16.75.48 1.04.77.43 1.37.43 1.24-.36 1.93-1.08a6.98 6.98 0 0 0 1.8-4.92 5.43 5.43 0 0 0-2.71-4.68c-1.79-1.17-4.09-1.76-6.9-1.76-3.18 0-5.96.71-8.35 2.12-2.39 1.42-3.58 3.33-3.58 5.73 0 1.13.14 1.96.41 2.49.28.53.48.94.61 1.21.13.28.4.6.82.98.42.38.71.65.87.82.1.11.31.28.6.48a5.87 5.87 0 0 1 2.85-2.92ZM27.92 20.62a3.86 3.86 0 0 0-.87-.87l-.93-.76c-.19-.16-.57-.42-1.15-.78l-1.21-.74-.4-.22a5.83 5.83 0 0 1-1.11 3.99c.29.19.6.4.91.63 1.27.98 1.91 2.23 1.91 3.75s-.66 2.75-1.97 3.71c-1.32.95-3.25 1.43-5.81 1.43s-4.53-.46-5.92-1.39a4.5 4.5 0 0 1-2.08-3.99c0-.4.1-.92.3-1.54.2-.62.3-1.09.3-1.41 0-.78-.47-1.17-1.41-1.17s-1.73.41-2.39 1.24a4.52 4.52 0 0 0-.98 2.88c0 2.75 1.15 4.86 3.45 6.33s5.18 2.21 8.65 2.21 6.38-.78 8.72-2.34a7.3 7.3 0 0 0 3.51-6.38c0-1.59-.3-2.82-.91-3.69l-.61-.91v.02Z"></path></svg><style>@media (prefers-color-scheme: light) { :root { filter: none; } }
@media (prefers-color-scheme: dark) { :root { filter: none; } }
</style></svg>